<?xml version="1.0" encoding="utf-8"?>
<!-- Generator: Adobe Illustrator 19.0.0, SVG Export Plug-In . SVG Version: 6.00 Build 0)  -->
<svg version="1.1" id="Layer_1" xmlns="http://www.w3.org/2000/svg" xmlns:xlink="http://www.w3.org/1999/xlink" x="0px" y="0px"
	 viewBox="-262 181.9 114.6 118.1" style="enable-background:new -262 181.9 114.6 118.1;" xml:space="preserve">
<style type="text/css">
	.st0{fill:#C9C9CA;stroke:#000000;stroke-miterlimit:10;}
	.st1{fill:#F0EFEF;stroke:#000000;stroke-miterlimit:10;}
	.st2{fill:#F0EFEF;}
	.st3{fill:#FFFFFF;}
	.st4{fill:#F8D220;}
	.st5{fill:#F7B21E;}
	.st6{fill:#A37C52;}
	.st7{fill:#F8F07C;}
	.st8{fill:#8A6339;}
	.st9{fill:none;stroke:#000000;stroke-miterlimit:10;}
	.st10{fill:#225BA9;}
	.st11{fill:#4293D0;}
</style>
<g>
	<path d="M-148.1,264.1c0,2-0.7,3.8-2.1,5c-1.2,1.1-2.8,1.7-4.4,1.7c-1.1,0-2.1-0.2-3.1-0.7c-1-0.4-1.9-1.1-2.6-1.9
		c0,0-1.7-1.7-3.7-1.7c-0.5,0-0.9,0.1-1.4,0.3c-2.8,12.5-11.3,23-22.9,28.4c-5.4,2.5-11.2,3.8-17.2,3.8c-7.6,0-15-2.1-21.5-6.1
		c-6.6-4.1-12-9.9-15.4-16.9c-0.1-0.3-0.3-0.6-0.4-0.9c-0.7-1.6-1.4-3.3-1.9-4.9c-0.2,0-0.5-0.1-0.7-0.1c-2,0-3.7,1.7-3.7,1.8
		c-1.5,1.6-3.6,2.6-5.7,2.6c-1.7,0-3.2-0.6-4.4-1.7c-1.4-1.3-2.1-3.1-2.1-5c0-1.9,0.8-3.7,2.1-5.2c3.1-3.4,7.7-5.2,12.7-5
		c0.1-5.2,1.1-10.4,3.1-15.2l-11.3-11.6c-0.5-0.6-0.7-1.4-0.4-2.1c0.3-0.7,0.9-1.2,1.7-1.3l9.7-0.9l1.8-18.3
		c0.1-0.6,0.4-1.1,0.8-1.5c0.5-0.3,1.1-0.5,1.7-0.3l17.9,4.4l4.3-8.6c0.3-0.7,1-1.1,1.8-1.1c0,0,0,0,0,0c0.8,0,1.5,0.4,1.8,1.1
		l7.3,14.9c0.2,0,0.4,0,0.6,0c16,0,30.6,9.4,37.3,23.8c2,4.3,3.2,8.8,3.6,13.4c0.9-0.1,1.7-0.2,2.6-0.2c4.7,0,9,1.8,11.9,5
		C-148.9,260.3-148.1,262.2-148.1,264.1z"/>
	<path class="st0" d="M-151.6,267.6c-2,1.8-5.2,1.4-7.3-0.8c0,0-4.5-4.9-9.4-0.7l-2.2-8.2c6.6-3.3,14.2-2.6,18.7,2.3
		C-149.6,262.5-149.6,265.8-151.6,267.6z"/>
	<path class="st1" d="M-257.8,271.2c2,1.8,5.2,1.4,7.3-0.8c0,0,4.5-4.9,9.4-0.7l2.2-8.2c-6.6-3.3-14.2-2.6-18.7,2.3
		C-259.8,266.1-259.8,269.4-257.8,271.2z"/>
	<path class="st0" d="M-240.5,275c-0.1-0.3-0.3-0.6-0.4-0.8c-9-19.5-0.5-42.7,19.1-51.7c19.5-9,42.7-0.5,51.7,19.1
		c9,19.5,0.5,42.7-19.1,51.7C-208.4,302.1-231.2,294-240.5,275"/>
	<path class="st2" d="M-237.6,268.5c-0.1-0.2-0.2-0.5-0.3-0.7c-7.5-16.2-0.4-35.4,15.8-42.9c16.2-7.5,35.5-0.4,42.9,15.8
		c7.5,16.2,0.4,35.4-15.8,42.9C-211,291-229.9,284.3-237.6,268.5"/>
	<path class="st3" d="M-221.4,249.8c-1.8,6.6-7.5,10.8-12.7,9.4c-5.2-1.4-8-7.9-6.2-14.5c1.8-6.6,7.5-10.8,12.7-9.4
		C-222.4,236.7-219.6,243.2-221.4,249.8z"/>
	<g id="XMLID_39_">
		<g>
			<path class="st4" d="M-205.5,222.7c1.3,1.9,1.3,4.5,0.2,7.3h0l-9.5-16.1v0l-0.5-11.1L-205.5,222.7z"/>
			<path class="st5" d="M-205.3,230L-205.3,230c-0.6,1.6-1.5,3.2-2.7,4.8h0l-6.1-7.3l-0.3-7.2l-0.3-6.3L-205.3,230z"/>
			<path class="st4" d="M-208,234.8L-208,234.8c-1.9,2.6-4.6,5.2-7.7,7.4c-2.6,1.9-5.4,3.3-8,4.3v0l-6.8-8.1l0.4-10.3l0.2-6l5.6,1.9
				l10.3,3.5L-208,234.8z"/>
			<path class="st6" d="M-214.7,213.9l0.3,6.3c-3,0.5-6.5,1.7-10,3.7l-5.6-1.9l-0.2,6c-2.1,1.8-3.8,3.7-5.1,5.5l-6.5-5.5l2-20
				l19.5,4.8l5.1-10.1L-214.7,213.9L-214.7,213.9z"/>
			<path class="st7" d="M-223.7,246.5L-223.7,246.5c-2.4,0.9-4.8,1.4-6.8,1.5l-14.1-15.3l7.8,3.2c0,0,0-0.1,0-0.1l6.3,2.6l-0.1-0.1
				L-223.7,246.5z"/>
			<path class="st4" d="M-244.6,232.7l14.1,15.3c-3.1,0.1-5.7-0.7-7-2.6l-0.2-0.4c0.1,0.1,0.2,0.3,0.2,0.4l-15.7-16.2L-244.6,232.7z
				"/>
			<path class="st8" d="M-241.8,228.1l6.5,5.5c-0.6,0.8-1,1.6-1.5,2.3l-16.4-6.7L-241.8,228.1z"/>
		</g>
		<g>
			<path class="st9" d="M-230.2,228c-2.1,1.8-3.8,3.7-5.1,5.5c-0.6,0.8-1,1.6-1.5,2.3l-16.4-6.7l11.4-1.1l2-20l19.5,4.8l5.1-10.1"/>
			<path class="st9" d="M-214.4,220.2c-3,0.5-6.5,1.7-10,3.7"/>
			<path class="st9" d="M-214.7,213.9l-0.5-11.1l9.8,19.8c1.3,1.9,1.3,4.5,0.2,7.3c-0.6,1.6-1.5,3.2-2.7,4.8
				c-1.9,2.6-4.6,5.2-7.7,7.4c-2.6,1.9-5.4,3.3-8,4.3c-2.4,0.9-4.8,1.4-6.8,1.5c-3.1,0.1-5.7-0.7-7-2.6"/>
			<path class="st9" d="M-237.6,245.3l-15.7-16.2l8.6,3.6l7.8,3.2c0,0,0-0.1,0-0.1l6.3,2.6l-0.1-0.1l0.4-10.3l0.2-6l5.6,1.9
				l10.3,3.5l-0.3-7.2l-0.3-6.3"/>
			<path class="st9" d="M-237.6,245.3l-0.2-0.4C-237.7,245.1-237.7,245.2-237.6,245.3z"/>
			<line class="st9" x1="-214.7" y1="213.9" x2="-214.7" y2="213.9"/>
		</g>
	</g>
	<g id="XMLID_38_">
		<g>
			<path class="st3" d="M-182.2,269.9c3.9,4.1,3.4,11-1.3,15.6c-4.7,4.5-11.7,4.9-15.6,0.8c-3.9-4.1-3.4-11,1.3-15.6
				C-193.2,266.2-186.2,265.8-182.2,269.9z"/>
			
				<ellipse transform="matrix(0.6146 -0.7888 0.7888 0.6146 -304.1433 -66.4943)" class="st3" cx="-220.1" cy="278" rx="10.3" ry="11.8"/>
		</g>
		<g>
			
				<ellipse transform="matrix(0.6146 -0.7888 0.7888 0.6146 -304.1433 -66.4943)" class="st9" cx="-220.1" cy="278" rx="10.3" ry="11.8"/>
			<path class="st9" d="M-197.8,270.7c-4.7,4.5-5.3,11.5-1.3,15.6c3.9,4.1,10.9,3.7,15.6-0.8c4.7-4.5,5.3-11.5,1.3-15.6
				C-186.2,265.8-193.2,266.2-197.8,270.7z"/>
		</g>
	</g>
	<circle class="st3" cx="-195.4" cy="277.6" r="1.2"/>
	<g>
		<circle class="st10" cx="-217.9" cy="277.2" r="5.4"/>
		<circle class="st11" cx="-216.9" cy="278.1" r="3.9"/>
		<circle class="st3" cx="-220.3" cy="274.8" r="1"/>
	</g>
	<g>
		<circle class="st10" cx="-192.7" cy="277.2" r="5.4"/>
		<circle class="st11" cx="-191.7" cy="278.1" r="3.9"/>
		<circle class="st3" cx="-195" cy="274.8" r="1"/>
	</g>
	<path d="M-205.6,291.3c-0.5,0-1-0.1-1.4-0.2c-1.4-0.3-2.5-1.2-3-2.3c-0.1-0.2,0-0.4,0.2-0.5c0.2-0.1,0.4,0,0.5,0.2
		c0.4,0.9,1.3,1.6,2.4,1.9c1.2,0.3,2.6,0.1,3.8-0.4c0.2-0.1,0.4,0,0.5,0.2c0.1,0.2,0,0.4-0.2,0.5
		C-203.6,291.1-204.6,291.3-205.6,291.3z"/>
</g>
</svg>
